# xmcd
#
# Track frame offsets: 
#        150
#        15434
#        16202
#        28570
#        30546
#        45866
#        47194
#        60730
#        61882
#        75114
#        79414
#
# Disc length: 1290 seconds
#
# Revision: 0
# Processed by: cddbd v1.5.2PL0 Copyright (c) Steve Scherf et al.
# Submitted via: ExactAudioCopy v0.99pb5
#
DISCID=7105080b
DTITLE=Highlands Country - June 5, 2011
DYEAR=2011
DGENRE=Country
TTITLE0=I'll Fly Away
TTITLE1=Talking
TTITLE2=Of All The Things About You
TTITLE3=Talking
TTITLE4=Steps
TTITLE5=Talking
TTITLE6=Where Country Grows
TTITLE7=Talking
TTITLE8=Real
TTITLE9=Bill Announcements
TTITLE10=When The Sand Runs Out
EXTD=
EXTT0=
EXTT1=
EXTT2=
EXTT3=
EXTT4=
EXTT5=
EXTT6=
EXTT7=
EXTT8=
EXTT9=
EXTT10=
PLAYORDER=
